<svg width="512" height="375" viewBox="0 0 512 375" fill="none" xmlns="http://www.w3.org/2000/svg">
<rect y="-5" width="512" height="380" fill="white"/>
<ellipse cx="256.5" cy="188" rx="125.5" ry="125" fill="#DEFDFF"/>
<g filter="url(#filter0_d_540_13593)">
<rect x="257.109" y="125.024" width="131.639" height="125.923" transform="rotate(4.96815 257.109 125.024)" fill="white"/>
<path d="M389.475 135.186L254.996 124.55L244.939 251.296L379.369 262.512L389.475 135.186ZM364.032 250.499C361.131 243.237 356.608 234.686 351.125 233.725C351.125 233.725 346.709 232.573 340.406 231.433L339.749 231.319C339.628 231.302 339.505 231.292 339.382 231.288C336.198 230.712 332.609 230.191 328.868 229.819C328.192 229.763 327.516 229.707 326.833 229.65L326.018 229.582C321.85 224.744 323.898 213.582 326.354 204.541C326.812 204.492 327.261 204.375 327.685 204.193C330.483 203.008 332.763 200.856 334.108 198.131C334.541 197.224 334.756 196.229 334.735 195.225C340.436 190.286 346.651 185.397 350.44 178.464C355.916 168.506 351.527 164.811 348.242 163.486C350.634 163.605 352.982 164.167 355.168 165.144C352.894 162.077 350.245 161.383 347.928 161.581C350.635 159.448 350.662 155.411 350.662 155.411C349.753 157.29 348.5 158.982 346.968 160.399C349.609 153.489 336.813 147.095 318.482 150.3C304.902 152.673 298.269 150.44 298.269 150.44C298.425 151.397 298.774 152.312 299.294 153.13C299.815 153.948 300.496 154.651 301.297 155.198C290.899 160.84 290.441 176.609 292.033 187.764C291.581 189.541 291.218 191.34 290.947 193.154C289.191 205.331 297.926 213.775 308.786 213.135C308.768 213.356 308.83 213.583 308.848 213.813C308.866 214.044 308.891 214.453 308.902 214.765C308.929 215.507 308.939 216.173 308.911 216.874C308.696 222.285 306.529 227.157 298.777 228.833C297.29 228.93 295.8 229.058 294.309 229.199L293.816 229.247L292.153 229.412L291.287 229.509L289.958 229.657L289.144 229.752L287.769 229.919L287.163 229.994L285.6 230.204L285.241 230.248C284.672 230.326 284.118 230.406 283.573 230.471L283.28 230.521L282.3 230.653C277.059 231.414 273.301 232.122 273.301 232.122C266.816 233.607 262.407 238.573 259.875 242.319L255.512 241.955L263.944 135.401L379.051 144.509L370.62 251.063L364.032 250.499Z" fill="#52B3E8"/>
<path opacity="0.4" d="M389.83 135.085L253.965 124.231L243.364 251.285L378.785 262.584L389.83 135.085Z" fill="#FAFAFA"/>
</g>
<g filter="url(#filter1_d_540_13593)">
<rect x="122.861" y="131.739" width="133.494" height="125.699" transform="rotate(-5.68909 122.861 131.739)" fill="#F1FFFF"/>
<path d="M122.041 131.832L134.853 258.264L269.09 244.625L256.265 118.234L122.041 131.832ZM256.859 220.454L231.292 199.594L213.2 221.767L169.577 186.199L140.902 221.34L132.745 140.862L247.619 129.218L256.859 220.454Z" fill="#52B3E8"/>
<path d="M227.14 168.628C229.255 159.397 223.487 150.201 214.256 148.086C205.026 145.971 195.829 151.74 193.714 160.97C191.6 170.2 197.368 179.397 206.598 181.512C215.829 183.627 225.026 177.858 227.14 168.628Z" fill="#52B3E8"/>
<path opacity="0.6" d="M122.151 131.805L134.963 258.237L269.2 244.599L256.375 118.208L122.151 131.805ZM256.969 220.428L231.402 199.568L213.31 221.74L169.687 186.173L141.012 221.313L132.855 140.836L247.729 129.191L256.969 220.428Z" fill="#FAFAFA"/>
<path opacity="0.6" d="M227.251 168.602C229.365 159.371 223.597 150.174 214.367 148.06C205.136 145.945 195.939 151.713 193.825 160.944C191.71 170.174 197.478 179.371 206.709 181.486C215.939 183.6 225.136 177.832 227.251 168.602Z" fill="#FAFAFA"/>
</g>
<defs>
<filter id="filter0_d_540_13593" x="239.364" y="124.231" width="154.466" height="146.352" filterUnits="userSpaceOnUse" color-interpolation-filters="sRGB">
<feFlood flood-opacity="0" result="BackgroundImageFix"/>
<feColorMatrix in="SourceAlpha" type="matrix" values="0 0 0 0 0 0 0 0 0 0 0 0 0 0 0 0 0 0 127 0" result="hardAlpha"/>
<feOffset dy="4"/>
<feGaussianBlur stdDeviation="2"/>
<feComposite in2="hardAlpha" operator="out"/>
<feColorMatrix type="matrix" values="0 0 0 0 0 0 0 0 0 0 0 0 0 0 0 0 0 0 0.25 0"/>
<feBlend mode="normal" in2="BackgroundImageFix" result="effect1_dropShadow_540_13593"/>
<feBlend mode="normal" in="SourceGraphic" in2="effect1_dropShadow_540_13593" result="shape"/>
</filter>
<filter id="filter1_d_540_13593" x="118.041" y="118.208" width="155.159" height="148.056" filterUnits="userSpaceOnUse" color-interpolation-filters="sRGB">
<feFlood flood-opacity="0" result="BackgroundImageFix"/>
<feColorMatrix in="SourceAlpha" type="matrix" values="0 0 0 0 0 0 0 0 0 0 0 0 0 0 0 0 0 0 127 0" result="hardAlpha"/>
<feOffset dy="4"/>
<feGaussianBlur stdDeviation="2"/>
<feComposite in2="hardAlpha" operator="out"/>
<feColorMatrix type="matrix" values="0 0 0 0 0 0 0 0 0 0 0 0 0 0 0 0 0 0 0.25 0"/>
<feBlend mode="normal" in2="BackgroundImageFix" result="effect1_dropShadow_540_13593"/>
<feBlend mode="normal" in="SourceGraphic" in2="effect1_dropShadow_540_13593" result="shape"/>
</filter>
</defs>
</svg>
