<svg width="512" height="375" viewBox="0 0 512 375" fill="none" xmlns="http://www.w3.org/2000/svg">
<rect x="2" y="-5" width="510" height="380" fill="white"/>
<circle cx="257.5" cy="188.5" r="121.5" fill="#DEFDFF"/>
<path d="M156.995 287.886C158.409 287.533 160.175 287.533 162.437 287.533C168.373 287.533 174.238 287.533 180.175 287.533C192.824 287.533 205.403 287.533 218.053 287.533C243.282 287.533 268.51 287.533 293.739 287.533C298.544 287.533 303.35 287.533 308.155 287.533C319.038 287.533 329.921 287.533 340.733 287.533C346.316 287.533 351.828 287.533 357.411 287.533C361.793 287.533 366.245 286.897 370.626 287.25C376.492 287.745 376.774 289.229 377.834 291.773C378.965 294.458 380.237 297.144 381.438 299.829C383.064 303.362 384.76 306.896 386.385 310.359C386.809 311.277 389.424 314.669 388.647 315.447C387.375 316.648 380.096 315.941 377.905 315.941C371.545 315.871 365.255 315.941 358.895 315.941C346.246 315.941 333.596 315.941 320.946 315.941C295.647 315.941 270.348 315.941 245.048 315.941C242.999 315.941 241.02 315.941 238.971 315.941C221.728 315.941 204.484 315.941 187.241 315.941C178.62 315.941 169.998 315.941 161.377 315.941C153.391 315.941 145.406 315.871 137.491 315.8C132.12 315.729 144.558 303.645 145.688 302.161C147.596 299.546 149.151 296.79 150.918 294.105C151.978 292.55 153.038 290.925 154.31 289.37C155.087 288.663 155.935 288.169 156.995 287.886Z" fill="#FDD98A"/>
<path d="M246.885 316.083C245.684 316.083 244.412 316.083 243.211 316.083C246.32 306.613 249.43 297.073 252.539 287.603C253.74 287.603 255.012 287.603 256.214 287.603C253.104 297.073 249.995 306.542 246.885 316.083Z" fill="#FEEABE"/>
<path d="M275.86 316.083C274.658 316.083 273.386 316.083 272.185 316.083C274.376 306.613 276.566 297.073 278.757 287.603C279.958 287.603 281.231 287.603 282.432 287.603C280.241 297.073 278.05 306.542 275.86 316.083Z" fill="#FEEABE"/>
<path d="M302.714 316.083C301.512 316.083 300.24 316.083 299.039 316.083C301.442 306.613 303.844 297.073 306.247 287.603C307.449 287.603 308.721 287.603 309.922 287.603C307.59 297.073 305.187 306.542 302.714 316.083Z" fill="#FEEABE"/>
<path d="M330.628 316.083C329.426 316.083 328.154 316.083 326.953 316.083C329.214 306.613 331.476 297.073 333.737 287.603C334.939 287.603 336.14 287.603 337.341 287.603C335.08 297.073 332.818 306.542 330.628 316.083Z" fill="#FEEABE"/>
<path d="M163.355 316.083C162.083 316.083 160.811 316.083 159.539 316.083C165.758 306.613 172.048 297.073 178.266 287.603C179.539 287.603 180.811 287.603 182.083 287.603C175.793 297.073 169.574 306.542 163.355 316.083Z" fill="#FEEABE"/>
<path d="M356.21 316.083C355.008 316.083 353.736 316.083 352.535 316.083C353.524 306.613 354.514 297.073 355.503 287.603C356.704 287.603 357.977 287.603 359.178 287.603C358.259 297.073 357.27 306.542 356.21 316.083Z" fill="#FEEABE"/>
<path d="M189.22 316.083C187.948 316.083 186.676 316.083 185.333 316.083C191.34 306.613 197.347 297.073 203.354 287.603C204.626 287.603 205.898 287.603 207.17 287.603C201.163 297.073 195.227 306.542 189.22 316.083Z" fill="#FEEABE"/>
<path d="M218.265 316.083C216.993 316.083 215.791 316.083 214.519 316.083C218.618 306.613 222.717 297.073 226.886 287.603C228.158 287.603 229.36 287.603 230.632 287.603C226.462 297.073 222.363 306.542 218.265 316.083Z" fill="#FEEABE"/>
<path d="M375.008 204.497C376.138 202.024 377.552 199.55 377.34 196.936C377.198 194.816 376.068 192.908 375.149 191.07C373.029 186.689 371.898 181.883 371.827 177.007C371.757 171.99 373.17 166.478 377.198 163.509C378.329 162.661 379.601 162.096 380.944 161.884C384.618 161.389 388.081 164.216 389.424 167.608C390.767 171 390.484 174.887 389.707 178.421C388.929 182.025 387.728 185.558 387.445 189.162C386.809 196.794 390.06 204.356 389.283 211.988C388.717 217.854 387.728 217.854 387.092 224.496C386.385 231.987 387.304 238.206 388.152 242.376C385.466 242.376 382.71 242.376 380.025 242.376C378.682 240.538 376.916 237.782 375.361 234.319C374.23 231.775 372.251 226.758 371.969 220.186C371.827 214.744 372.817 209.373 375.008 204.497Z" fill="#6E9C82"/>
<path d="M399.741 225.486C404.971 218.348 408.928 218.066 414.441 209.727C418.61 203.437 419.67 198.632 421.366 198.914C423.062 199.197 423.91 204.073 423.415 208.172C423.062 210.787 422.073 212.624 419.529 217.147C416.349 222.73 413.169 228.383 408.858 233.118C407.868 234.178 404.83 236.651 403.063 241.104C402.851 241.598 402.71 242.022 402.639 242.305C400.519 242.305 398.469 242.305 396.349 242.305C395.077 242.305 393.735 242.305 392.463 242.305C394.159 234.178 397.268 228.807 399.741 225.486Z" fill="#6E9C82"/>
<path d="M383.629 243.93C381.085 235.238 378.824 226.687 380.025 218.066C380.308 216.087 380.732 214.179 381.156 212.271C381.58 210.292 382.074 208.172 382.357 206.123C382.922 201.247 382.357 196.3 381.792 191.494C381.65 190.081 381.438 188.597 381.297 187.184C380.732 181.601 380.52 174.393 383.77 168.386L384.265 168.668C381.085 174.534 381.368 181.671 381.862 187.184C382.004 188.597 382.145 190.081 382.357 191.494C382.922 196.37 383.558 201.317 382.922 206.264C382.64 208.384 382.216 210.434 381.721 212.483C381.297 214.391 380.873 216.299 380.59 218.278C379.46 226.758 381.65 235.238 384.194 243.86L383.629 243.93Z" fill="#558369"/>
<path d="M397.551 245.556L396.985 245.485C397.268 241.528 399.812 238.065 401.862 235.309L412.462 220.963C415.218 217.218 418.045 213.401 419.387 208.879C419.882 207.183 420.094 205.557 420.023 204.073H420.589C420.659 205.628 420.447 207.324 419.882 209.091C418.539 213.684 415.501 217.783 412.886 221.387L402.286 235.733C400.307 238.418 397.763 241.74 397.551 245.556Z" fill="#558369"/>
<path d="M358.259 233.542C354.372 229.09 355.644 222.306 354.796 216.44C353.454 207.253 346.387 199.268 346.67 190.01C346.74 188.668 346.952 187.254 347.659 186.124C349.638 182.944 354.584 183.085 357.482 185.417C360.379 187.749 361.722 191.424 362.923 194.957C364.478 199.551 366.033 204.073 367.587 208.667C368.153 210.363 368.789 212.13 369.778 213.614C370.979 215.31 372.676 216.652 374.018 218.207C376.562 221.175 377.622 224.991 379.389 233.118C379.884 235.38 380.449 238.489 380.873 242.234C377.764 242.234 374.654 242.234 371.545 242.234C370.909 241.669 369.99 240.821 368.789 239.832C363.63 235.804 360.097 235.662 358.259 233.542Z" fill="#8AB49E"/>
<path d="M387.799 228.454C388.505 225.415 388.788 222.942 390.837 220.61C393.452 217.642 398.116 216.228 399.176 212.412C399.742 210.363 399.035 207.96 400.095 206.052C400.66 205.063 401.508 204.427 402.215 203.579C404.476 200.752 403.911 196.653 404.476 193.049C405.183 187.961 408.504 183.226 413.027 180.823C415.359 179.551 418.398 178.986 420.518 180.611C422.638 182.237 422.85 185.417 422.285 188.102C420.871 194.18 416.419 199.197 414.723 205.275C413.734 208.95 413.734 212.836 412.603 216.511C411.402 220.327 409.918 222.73 408.01 225.981C405.89 229.726 402.922 235.238 399.6 242.305C395.643 242.305 391.685 242.305 387.799 242.305C387.092 238.913 386.527 233.966 387.799 228.454Z" fill="#8AB49E"/>
<path d="M377.41 247.817C376.633 243.153 374.725 238.701 371.898 234.955C370.979 233.754 369.919 232.553 368.93 231.422C367.375 229.585 365.679 227.747 364.478 225.627C362.429 222.094 361.51 217.995 360.732 214.108C360.591 213.401 360.45 212.695 360.308 212.059C358.612 204.427 355.998 197.006 352.676 189.94L353.171 189.728C356.563 196.794 359.107 204.285 360.803 211.988C360.944 212.695 361.086 213.401 361.227 214.108C362.075 217.995 362.923 222.023 364.973 225.486C366.174 227.535 367.799 229.443 369.354 231.21C370.343 232.341 371.403 233.542 372.322 234.814C375.22 238.63 377.128 243.224 377.905 247.958L377.41 247.817Z" fill="#6E9C82"/>
<path d="M391.827 246.121L391.261 246.05C392.321 240.397 395.289 235.379 398.116 230.503C399.6 228.03 401.084 225.415 402.356 222.8C404.688 217.783 406.243 212.341 407.727 207.041C409.989 198.985 412.25 190.646 417.55 184.074L417.974 184.427C412.815 190.999 410.483 199.268 408.292 207.253C406.808 212.553 405.254 218.066 402.922 223.154C401.65 225.768 400.166 228.383 398.682 230.927C395.855 235.591 392.887 240.609 391.827 246.121Z" fill="#6E9C82"/>
<path d="M406.455 242.376C406.384 242.305 406.314 242.305 406.243 242.305C392.887 242.376 379.53 242.305 366.174 242.305C365.962 242.305 365.75 242.446 365.75 242.658C365.467 245.061 365.821 247.746 365.962 250.078C366.033 251.704 366.245 254.319 366.457 255.944C367.87 265.767 371.545 275.095 376.421 283.787C376.562 283.999 376.704 284.282 376.916 284.423C377.057 284.565 377.269 284.635 377.481 284.635C380.661 285.483 383.982 285.837 387.233 285.695C388.788 285.625 390.272 285.483 391.827 285.201C392.887 284.989 394.159 285.13 395.148 284.494C396.491 283.646 397.268 281.385 397.975 280.042C398.894 278.275 399.812 276.438 400.59 274.53C404.9 264.424 407.02 253.471 406.596 242.446C406.596 242.517 406.596 242.446 406.455 242.376Z" fill="#BA8F63"/>
<path d="M385.749 253.824C378.965 253.824 372.676 253.188 366.103 251.774L365.962 249.513C379.601 252.41 393.028 252.552 406.596 249.301L406.455 251.633C399.035 253.4 393.311 253.824 385.749 253.824Z" fill="#EBDBC2"/>
<path d="M382.357 265.06C377.41 265.06 373.17 264.848 368.223 264.353C368.082 263.717 367.87 263.152 367.729 262.516C367.587 262.021 367.446 261.456 367.375 260.961C372.888 261.597 379.318 261.88 386.385 261.668C392.745 261.456 398.964 260.891 405.112 259.76L404.335 263.223C396.632 264.636 390.272 265.06 382.357 265.06Z" fill="#EBDBC2"/>
<path d="M384.336 276.508C380.096 276.508 376.492 276.226 372.322 275.589C372.181 275.236 372.04 274.883 371.898 274.529C371.686 274.105 371.545 273.611 371.333 273.187C375.502 273.893 380.59 274.317 386.385 274.176C391.473 274.035 396.844 273.399 401.579 272.268L400.59 274.741C394.795 276.155 390.201 276.508 384.336 276.508Z" fill="#EBDBC2"/>
<path d="M383.205 283.434C380.802 283.434 378.329 283.222 375.856 282.798L375.22 281.596C382.569 282.869 391.332 282.162 398.328 279.406L397.622 280.89C392.745 282.798 388.435 283.434 383.205 283.434Z" fill="#EBDBC2"/>
<path d="M110.495 215.168C108.446 213.472 106.255 211.211 106.538 208.596C107.951 207.677 109.789 208.455 111.273 209.303C121.166 214.815 130.283 221.811 138.127 230.009C141.448 233.471 135.441 231.705 134.028 231.139C130.989 229.938 128.162 228.383 125.406 226.687C120.106 223.295 115.301 219.267 110.495 215.168Z" fill="#6E9C82"/>
<path d="M134.664 174.817C135.229 172.555 136.289 170.011 138.551 169.516C138.904 169.446 139.399 169.446 139.682 169.658C140.035 169.87 140.106 170.294 140.247 170.718C142.932 182.025 140.106 193.826 140.318 205.487C140.388 209.656 140.883 213.755 141.731 217.783C142.014 219.126 143.144 223.719 141.024 223.86C139.47 224.002 137.703 219.408 137.208 218.348C135.017 213.896 133.604 209.091 132.827 204.215C131.272 194.462 132.12 184.357 134.664 174.817Z" fill="#6E9C82"/>
<path d="M178.549 210.434C182.295 207.889 186.252 205.416 190.775 204.851C191.906 204.709 193.39 204.992 193.46 206.123C193.531 206.9 192.824 207.465 192.259 207.889C187.454 211.352 182.507 214.674 177.419 217.783C172.754 220.68 167.313 224.85 162.013 226.405C159.681 222.023 175.511 212.483 178.549 210.434Z" fill="#6E9C82"/>
<path d="M153.744 249.655L152.967 249.513C153.886 243.718 154.875 237.146 157.914 231.634C161.801 224.638 168.585 219.762 175.157 215.38C179.114 212.695 183.425 209.939 188.16 207.819L188.513 208.526C183.849 210.646 179.609 213.402 175.652 216.016C169.15 220.327 162.437 225.203 158.621 232.058C155.652 237.429 154.734 243.648 153.744 249.655Z" fill="#558369"/>
<path d="M148.374 249.442H147.526C147.526 248.948 147.526 248.312 147.526 247.888C147.172 242.234 143.71 237.711 140.035 233.613C135.865 228.949 130.565 225.415 125.477 222.023L113.11 213.755L113.534 213.119L125.901 221.387C131.06 224.85 136.431 228.383 140.6 233.118C143.003 235.803 145.335 238.701 146.748 241.952C145.759 236.651 143.851 231.493 142.014 226.475C140.317 221.882 138.621 217.218 137.491 212.412C134.805 200.611 136.007 188.102 137.067 177.078L137.844 177.149C136.784 188.102 135.583 200.54 138.197 212.2C139.257 216.935 141.024 221.599 142.65 226.193C145.194 233.189 147.879 240.326 148.162 247.888C148.374 248.241 148.374 248.948 148.374 249.442Z" fill="#558369"/>
<path d="M167.596 222.094C169.362 210.434 173.602 199.056 180.175 189.304C181.447 187.396 183.001 185.488 185.192 184.922C185.616 184.852 186.04 184.781 186.393 184.922C186.888 185.205 187.1 185.841 187.171 186.406C187.312 187.961 186.888 189.516 186.323 191C184.839 195.31 182.86 199.48 180.881 203.579C177.489 210.716 174.097 217.854 170.705 224.921C170.281 225.769 168.797 229.019 167.454 227.959C166.394 227.253 167.384 223.295 167.596 222.094Z" fill="#8AB49E"/>
<path d="M172.825 231.21C179.044 226.122 185.687 221.599 192.753 217.712C194.308 216.864 195.863 216.016 197.559 215.451C198.76 215.027 200.103 214.744 201.375 214.956C202.152 215.098 203 215.522 203.142 216.299C203.283 217.006 202.788 217.712 202.294 218.207C201.234 219.338 199.962 220.186 198.619 220.963C193.884 223.79 188.725 225.91 184.061 228.807C180.599 230.927 177.489 233.472 174.168 235.733C172.613 236.793 170.776 238.277 168.938 238.913C166.606 239.761 167.878 236.722 168.514 235.662C169.574 233.966 171.2 232.553 172.825 231.21Z" fill="#8AB49E"/>
<path d="M96.9268 236.934C91.344 237.429 85.8319 239.054 81.0971 242.022C80.0371 242.729 78.9064 243.718 79.1184 244.92C79.2597 246.333 81.0264 246.969 82.4398 247.11C83.7825 247.252 85.1252 247.181 86.4679 247.04C95.0188 246.404 103.499 244.001 111.202 240.114C111.979 239.69 112.757 239.337 113.393 238.701C114.947 237.217 111.909 237.287 110.99 237.217C109.435 237.075 107.88 236.863 106.255 236.793C103.075 236.651 99.9656 236.651 96.9268 236.934Z" fill="#8AB49E"/>
<path d="M86.7507 202.589C85.6907 201.529 84.4893 200.116 85.0546 198.703C85.3373 197.925 86.1147 197.36 86.9627 197.148C87.8107 196.936 88.6587 197.077 89.5068 197.289C93.0402 198.067 96.2909 200.045 99.047 202.377C106.609 208.596 111.626 217.147 118.057 224.426C118.834 225.345 119.682 226.263 120.53 227.111C121.52 228.101 121.308 228.666 120.036 228.03C117.704 226.97 115.442 225.203 113.251 223.79C108.799 220.892 104.488 217.783 100.319 214.462C95.5136 210.716 90.9908 206.759 86.7507 202.589Z" fill="#8AB49E"/>
<path d="M99.4709 176.018C106.538 187.608 114.735 198.491 123.993 208.384C125.689 210.151 127.385 211.988 129.293 213.543C129.717 213.896 130.212 214.32 130.777 214.25C131.625 214.25 132.19 213.331 132.19 212.483C132.19 211.635 131.766 210.858 131.413 210.151C130.424 208.314 129.364 206.405 128.374 204.568C126.608 201.317 124.841 198.067 123.004 194.886C118.551 186.972 113.605 178.915 105.831 174.251C103.994 173.121 102.015 172.273 99.8949 171.849C98.6935 171.637 98.2695 171.637 98.2695 172.979C98.2695 174.039 98.9055 175.099 99.4709 176.018Z" fill="#8AB49E"/>
<path d="M117.633 219.055C117.35 219.691 117.916 220.398 118.41 220.822C123.216 224.991 129.081 228.101 135.441 229.019C136.077 229.09 138.127 229.726 138.41 228.807C138.622 228.101 137.279 227.04 136.855 226.616C134.593 224.567 131.625 223.224 128.869 222.094C125.265 220.61 121.449 219.55 117.633 219.055Z" fill="#8AB49E"/>
<path d="M129.717 173.615C130.989 176.089 132.049 178.703 133.038 181.318C137.703 193.261 142.437 205.133 147.101 217.076C147.525 218.136 147.95 219.196 148.868 219.903C149.01 220.044 149.292 220.186 149.434 220.044C149.575 219.974 149.646 219.832 149.646 219.691C151.271 214.32 149.363 208.525 147.879 203.084C146.112 196.441 145.052 189.516 142.649 183.085C140.176 176.513 136.36 170.576 132.049 164.994C131.13 163.863 130.212 162.732 129.01 161.955C128.162 161.46 126.184 160.541 125.265 161.46C124.417 162.308 125.336 164.358 125.618 165.276C126.608 168.244 128.304 170.859 129.717 173.615Z" fill="#8AB49E"/>
<path d="M153.109 197.572C152.473 192.413 152.119 187.254 151.907 182.025C151.766 177.007 151.907 171.778 154.027 167.185C154.451 166.266 155.017 165.347 155.865 164.852C156.713 164.358 157.985 164.287 158.621 165.064C159.115 165.63 159.186 166.407 159.257 167.114C159.681 173.333 159.822 179.693 158.621 185.841C158.126 188.385 157.419 190.788 156.713 193.261C156.077 195.381 155.441 197.572 154.805 199.692C154.522 200.611 154.451 201.741 153.745 200.681C153.179 199.833 153.179 198.42 153.109 197.572Z" fill="#8AB49E"/>
<path d="M165.687 192.13C164.345 194.18 163.002 196.229 161.871 198.42C160.953 200.257 160.175 202.165 159.469 204.073C158.126 207.536 156.925 211.069 155.653 214.603C153.886 219.691 152.19 224.92 152.119 230.291C152.119 230.786 152.19 231.351 152.614 231.493C153.038 231.634 153.462 231.21 153.745 230.857C155.935 227.747 156.854 223.86 158.338 220.327C159.115 218.49 160.105 216.723 161.023 214.885C163.709 209.797 166.182 204.638 168.656 199.409C169.292 198.066 169.998 196.653 170.422 195.24C170.846 193.897 172.896 187.113 171.27 186.547C169.433 185.841 166.536 190.858 165.687 192.13Z" fill="#8AB49E"/>
<path d="M143.709 250.573C140.741 244.213 134.876 239.761 129.222 235.45C127.668 234.319 126.113 233.118 124.629 231.846C120.177 228.242 116.007 224.073 112.05 220.044C105.407 213.331 98.5522 206.405 90.072 201.953L90.4254 201.247C98.9763 205.769 105.902 212.695 112.545 219.479C116.502 223.507 120.671 227.677 125.053 231.281C126.537 232.482 128.092 233.683 129.646 234.814C135.371 239.196 141.307 243.648 144.416 250.22L143.709 250.573Z" fill="#6E9C82"/>
<path d="M156.5 252.552L155.864 252.128C157.631 249.231 157.419 245.132 155.228 241.669C153.249 238.489 150.14 236.157 147.031 234.108C139.398 229.09 131.201 224.991 122.579 222.023L122.862 221.246C131.554 224.285 139.822 228.383 147.525 233.472C150.705 235.592 153.956 237.994 156.006 241.316C158.196 245.061 158.408 249.443 156.5 252.552Z" fill="#6E9C82"/>
<path d="M159.398 249.655H158.55C168.302 236.298 182.153 224.709 197.205 217.925L197.559 218.631C182.577 225.415 169.079 236.369 159.398 249.655Z" fill="#6E9C82"/>
<path d="M151.554 250.997C151.2 250.927 150.918 250.927 150.564 250.856C150.706 250.149 150.776 249.443 150.918 248.807C151.836 236.016 152.614 223.012 153.179 210.221C153.32 206.547 153.462 202.872 153.674 199.127L154.804 170.718H155.582L154.451 199.127C154.31 202.801 154.168 206.476 153.956 210.221C153.391 223.366 152.614 236.722 151.624 249.867L151.554 250.997Z" fill="#6E9C82"/>
<path d="M161.659 254.955V250.22H161.871C165.9 231.139 170.21 211.564 180.74 194.674L181.376 195.098C170.705 212.129 166.465 232.058 162.437 251.35L161.659 254.955Z" fill="#6E9C82"/>
<path d="M156.924 253.824C156.571 253.259 156.218 252.693 155.864 252.128C155.44 250.644 155.087 249.231 154.663 247.746C153.32 242.022 152.048 235.733 152.896 229.585C153.532 224.638 155.44 220.044 157.207 216.087C159.822 210.221 162.719 204.356 165.899 198.773L166.606 199.127C163.497 204.709 160.529 210.504 157.984 216.37C156.288 220.256 154.38 224.85 153.744 229.655C152.826 236.652 154.592 243.93 156.218 250.291L156.924 253.824Z" fill="#6E9C82"/>
<path d="M146.253 250.079H145.476C145.617 246.616 144.628 243.294 143.709 240.397C138.833 225.557 129.717 212.554 121.025 200.045L110.283 184.64L110.919 184.216L121.59 199.551C130.353 212.2 139.469 225.203 144.416 240.114C145.405 243.082 146.324 246.545 146.253 250.079Z" fill="#6E9C82"/>
<path d="M138.127 250.785C137.844 250.856 137.561 250.927 137.349 251.068C136.643 250.22 135.936 249.443 135.229 248.595C131.06 243.789 127.032 239.902 121.59 238.63C117.633 237.712 113.393 238.56 109.647 239.266L88.5173 243.295L88.376 242.517L109.506 238.489C113.322 237.782 117.633 236.934 121.802 237.853C128.445 239.337 133.392 245.132 136.996 249.443L138.127 250.785Z" fill="#6E9C82"/>
<path d="M150.564 250.856L149.716 236.652C149.504 232.624 149.222 228.454 148.727 224.426C146.395 204.851 138.48 186.406 130.918 168.598L131.625 168.315C139.257 186.194 147.172 204.639 149.504 224.355C149.999 228.454 150.211 232.624 150.494 236.652L151.342 250.856H150.564Z" fill="#6E9C82"/>
<path d="M176.782 285.059C159.539 285.059 142.296 285.059 125.053 285.059C124.629 281.455 125.053 277.498 125.053 273.823C125.053 268.735 125.053 263.717 125.053 258.629C125.053 256.015 125.053 253.47 125.053 250.856C125.053 250.008 125.76 249.301 126.608 249.301H175.44C176.288 249.301 176.994 250.008 176.994 250.856C176.994 256.509 176.994 262.163 176.994 267.816C176.994 272.056 176.782 276.226 176.782 280.466C176.782 280.749 176.994 282.021 176.924 283.717C176.924 284.282 176.853 284.777 176.782 285.059Z" fill="#A2703B"/>
<path d="M140.317 281.385C134.876 281.385 129.434 281.385 124.063 281.314V279.759C142.296 279.83 160.74 279.759 178.973 279.547V281.102C166.182 281.314 153.179 281.385 140.317 281.385Z" fill="#BA8F63"/>
<path d="M124.982 268.24V267.463C142.367 266.756 160.034 266.685 177.348 267.321V268.099C159.963 267.463 142.367 267.533 124.982 268.24Z" fill="#BA8F63"/>
<path d="M177.206 257.64C159.822 256.933 142.155 255.944 124.77 254.813L124.841 254.036C142.296 255.237 159.893 256.156 177.277 256.863L177.206 257.64Z" fill="#BA8F63"/>
<path d="M182.224 279.759C163.073 278.699 143.568 278.204 124.346 278.275V277.498C143.568 277.427 163.073 277.922 182.224 278.982V279.759Z" fill="#BA8F63"/>
<path d="M177.277 254.177C159.963 253.824 142.367 253.682 125.053 253.682V252.128C142.437 252.128 160.034 252.269 177.348 252.622L177.277 254.177Z" fill="#BA8F63"/>
<path d="M143.992 263.364C137.773 263.364 131.201 263.152 125.053 262.799V261.244C141.024 262.304 158.267 261.738 176.994 260.678V262.233C165.334 262.869 154.098 263.364 143.992 263.364Z" fill="#BA8F63"/>
<path d="M124.905 270.579L124.859 272.134L177.486 273.687L177.532 272.133L124.905 270.579Z" fill="#BA8F63"/>
<path d="M188.089 281.455L196.428 280.536C195.792 283.716 194.944 287.25 193.672 290.995C192.329 295.023 190.845 298.628 189.361 301.737C188.019 301.737 186.676 301.737 185.333 301.737C186.181 298.557 186.959 294.882 187.453 290.713C187.948 287.391 188.089 284.282 188.089 281.455Z" fill="#583823"/>
<path d="M336.776 281.455L328.437 280.536C329.073 283.716 329.921 287.25 331.193 290.995C332.536 295.023 334.02 298.628 335.504 301.737C336.847 301.737 338.189 301.737 339.532 301.737C338.684 298.557 337.907 294.882 337.412 290.713C336.917 287.391 336.776 284.282 336.776 281.455Z" fill="#583823"/>
<path d="M165.688 215.309C190.987 209.585 223.777 204.497 262.221 204.497C300.664 204.497 333.455 209.585 358.754 215.309C354.938 227.252 351.122 239.195 347.306 251.138L184.415 253.4L165.688 215.309Z" fill="#9ACEDF"/>
<path d="M182.86 280.607C200.739 290.571 211.905 287.391 258.192 287.674C313.314 288.027 330.062 292.691 346.881 278.982C355.786 271.774 362.57 261.173 364.831 257.64C377.057 238.135 375.856 227.606 375.502 225.203C375.008 221.882 374.159 216.369 369.778 214.108C365.114 211.776 359.602 214.744 358.683 215.239C352.323 224.567 346.033 233.895 339.673 243.153C317.13 239.902 290.771 237.57 261.372 237.711C233.388 237.853 208.23 240.185 186.605 243.435C179.609 234.037 172.613 224.638 165.617 215.239C158.974 212.553 155.511 213.543 153.674 214.673C145.971 219.549 149.363 238.842 154.592 250.714C161.73 267.109 175.157 276.296 182.86 280.607Z" fill="#B7DFEC"/>
<path d="M186.676 243.506C208.301 240.255 233.459 237.923 261.443 237.782C290.841 237.641 317.201 239.973 339.744 243.223C323.773 249.796 296 258.841 260.525 258.417C227.876 258.064 202.152 249.866 186.676 243.506Z" fill="#78AAAD"/>
<rect x="213.84" y="74.6978" width="88.6832" height="82.9821" fill="white"/>
<rect x="229.082" y="89.2969" width="58.2156" height="53.7754" fill="#E1E4E4"/>
<mask id="mask0_540_13595" style="mask-type:alpha" maskUnits="userSpaceOnUse" x="229" y="89" width="59" height="55">
<rect x="229.139" y="89.2676" width="58.2156" height="53.7754" fill="#C4C4C4"/>
</mask>
<g mask="url(#mask0_540_13595)">
<path d="M223.816 83.826L223.675 148.578L292.426 148.708L292.558 83.9766L223.816 83.826ZM287.496 135.816L275.632 123.902L265.299 134.19L245.056 113.875L228.679 130.181L228.767 88.9647L287.599 89.0898L287.496 135.816Z" fill="#407BFF"/>
<path d="M275.152 107.99C276.708 103.423 274.267 98.4586 269.7 96.9026C265.133 95.3465 260.169 97.7875 258.613 102.355C257.057 106.922 259.498 111.886 264.065 113.442C268.632 114.998 273.596 112.557 275.152 107.99Z" fill="#407BFF"/>
</g>
<path fill-rule="evenodd" clip-rule="evenodd" d="M295.555 81.6657H220.808V150.712H295.555V81.6657ZM213.84 74.6978V157.68H302.523V74.6978H213.84Z" fill="black"/>
<path opacity="0.4" d="M213.839 73.4649L213.824 157.357L302.524 157.729L302.538 73.8363L213.839 73.4649Z" fill="#FAFAFA"/>
<path opacity="0.4" d="M213.839 73.4649L213.824 157.357L302.524 157.729L302.538 73.8363L213.839 73.4649Z" fill="#FAFAFA"/>
<rect x="213.488" y="74.6978" width="88.6828" height="82.9818" fill="white"/>
<rect x="228.73" y="89.2966" width="58.2153" height="53.7752" fill="#D7F8F8"/>
<mask id="mask1_540_13595" style="mask-type:alpha" maskUnits="userSpaceOnUse" x="228" y="89" width="60" height="55">
<rect x="228.787" y="89.2671" width="58.2153" height="53.7752" fill="#C4C4C4"/>
</mask>
<g mask="url(#mask1_540_13595)">
<path d="M223.464 83.8255L223.324 148.577L292.075 148.707L292.206 83.9762L223.464 83.8255ZM287.144 135.815L275.28 123.901L264.948 134.19L244.704 113.874L228.327 130.18L228.416 88.9642L287.248 89.0893L287.144 135.815Z" fill="#52B3E8"/>
<path d="M274.8 107.989C276.357 103.422 273.916 98.4582 269.348 96.9021C264.781 95.3461 259.817 97.7871 258.261 102.354C256.705 106.922 259.146 111.885 263.713 113.442C268.281 114.998 273.244 112.557 274.8 107.989Z" fill="#52B3E8"/>
</g>
<path fill-rule="evenodd" clip-rule="evenodd" d="M295.203 81.6657H220.456V150.712H295.203V81.6657ZM213.488 74.6978V157.68H302.171V74.6978H213.488Z" fill="black"/>
<path opacity="0.4" d="M213.488 73.4648L213.473 157.357L302.172 157.728L302.187 73.8362L213.488 73.4648Z" fill="#FAFAFA"/>
<rect x="127.5" y="55.5" width="259" height="117" rx="5.5" stroke="black" stroke-width="7"/>
</svg>
