<svg width="510" height="375" viewBox="0 0 510 375" fill="none" xmlns="http://www.w3.org/2000/svg">
<circle cx="256" cy="187" r="125" fill="#DEFDFF"/>
<rect x="335.934" y="137.741" width="103.426" height="96.7775" fill="white"/>
<rect x="353.71" y="154.767" width="67.8936" height="62.7153" fill="#D7F8F8"/>
<mask id="mask0_540_13594" style="mask-type:alpha" maskUnits="userSpaceOnUse" x="353" y="154" width="69" height="64">
<rect x="353.777" y="154.733" width="67.8936" height="62.7153" fill="#C4C4C4"/>
</mask>
<g mask="url(#mask0_540_13594)">
<path d="M347.569 148.386L347.406 223.902L427.586 224.055L427.739 148.562L347.569 148.386ZM421.835 209.019L407.999 195.124L395.949 207.123L372.34 183.431L353.241 202.447L353.343 154.379L421.956 154.525L421.835 209.019Z" fill="#52B3E8"/>
<path d="M407.44 176.567C409.255 171.241 406.408 165.452 401.081 163.637C395.755 161.822 389.966 164.669 388.151 169.995C386.336 175.322 389.183 181.111 394.51 182.926C399.836 184.741 405.625 181.894 407.44 176.567Z" fill="#52B3E8"/>
</g>
<path fill-rule="evenodd" clip-rule="evenodd" d="M431.234 145.867H344.061V226.392H431.234V145.867ZM335.934 137.741V234.518H439.361V137.741H335.934Z" fill="#997B6D"/>
<path opacity="0.4" d="M335.934 136.303L335.917 234.142L439.362 234.575L439.379 136.736L335.934 136.303Z" fill="#FAFAFA"/>
<rect x="70.519" y="137.741" width="103.426" height="96.7775" fill="white"/>
<rect x="88.2944" y="154.767" width="67.8936" height="62.7153" fill="#D7F8F8"/>
<mask id="mask1_540_13594" style="mask-type:alpha" maskUnits="userSpaceOnUse" x="88" y="154" width="69" height="64">
<rect x="88.3611" y="154.733" width="67.8936" height="62.7153" fill="#C4C4C4"/>
</mask>
<g mask="url(#mask1_540_13594)">
<path d="M82.153 148.386L81.9895 223.902L162.17 224.055L162.323 148.562L82.153 148.386ZM156.419 209.019L142.583 195.124L130.533 207.123L106.924 183.431L87.8245 202.447L87.9274 154.379L156.54 154.525L156.419 209.019Z" fill="#52B3E8"/>
<path d="M142.024 176.567C143.838 171.241 140.992 165.452 135.665 163.637C130.339 161.822 124.549 164.669 122.735 169.995C120.92 175.322 123.767 181.111 129.093 182.926C134.42 184.741 140.209 181.894 142.024 176.567Z" fill="#52B3E8"/>
</g>
<path fill-rule="evenodd" clip-rule="evenodd" d="M165.819 145.867H78.6454V226.392H165.819V145.867ZM70.519 137.741V234.518H173.945V137.741H70.519Z" fill="#B26A14"/>
<path opacity="0.4" d="M70.5181 136.303L70.501 234.142L173.946 234.575L173.963 136.736L70.5181 136.303Z" fill="#FAFAFA"/>
<rect x="187.88" y="123.585" width="134.12" height="125.498" fill="white"/>
<rect x="210.931" y="145.664" width="88.0421" height="81.327" fill="#D7F8F8"/>
<mask id="mask2_540_13594" style="mask-type:alpha" maskUnits="userSpaceOnUse" x="211" y="145" width="89" height="82">
<rect x="211.018" y="145.619" width="88.0421" height="81.327" fill="#C4C4C4"/>
</mask>
<g mask="url(#mask2_540_13594)">
<path d="M202.967 137.39L202.755 235.317L306.73 235.514L306.929 137.618L202.967 137.39ZM299.273 216.017L281.332 197.999L265.705 213.558L235.09 182.835L210.322 207.494L210.455 145.161L299.43 145.351L299.273 216.017Z" fill="#52B3E8"/>
<path d="M280.606 173.934C282.959 167.026 279.268 159.519 272.36 157.166C265.453 154.813 257.946 158.504 255.593 165.412C253.239 172.319 256.931 179.826 263.838 182.179C270.745 184.533 278.253 180.841 280.606 173.934Z" fill="#52B3E8"/>
</g>
<path fill-rule="evenodd" clip-rule="evenodd" d="M311.462 134.123H198.418V238.545H311.462V134.123ZM187.88 123.585V249.083H321.999V123.585H187.88Z" fill="black"/>
<path opacity="0.4" d="M187.879 121.721L187.857 248.595L322.001 249.156L322.023 122.282L187.879 121.721Z" fill="#FAFAFA"/>
</svg>
